<svg xmlns="http://www.w3.org/2000/svg" xmlns:xlink="http://www.w3.org/1999/xlink" width="200" zoomAndPan="magnify" viewBox="0 0 150 74.999997" height="100" preserveAspectRatio="xMidYMid meet" version="1.0"><defs><g/></defs><rect x="-15" width="180" fill="#ffffff" y="-7.5" height="89.999996" fill-opacity="1"/><rect x="-15" width="180" fill="#ffffff" y="-7.5" height="89.999996" fill-opacity="1"/><rect x="-15" width="180" fill="#ffffff" y="-7.5" height="89.999996" fill-opacity="1"/><g fill="#000000" fill-opacity="1"><g transform="translate(50.654295, 43.124997)"><g><path d="M 8.546875 -0.203125 L 8.640625 -0.203125 C 8.960938 -0.203125 9.125 -0.347656 9.125 -0.640625 C 9.125 -0.742188 9.101562 -0.859375 9.0625 -0.984375 L 7.265625 -5.84375 L 3.765625 -5.84375 L 2.015625 -1.0625 C 1.972656 -0.957031 1.953125 -0.859375 1.953125 -0.765625 C 1.953125 -0.585938 2 -0.445312 2.09375 -0.34375 C 2.1875 -0.25 2.289062 -0.203125 2.40625 -0.203125 L 2.5 -0.203125 L 2.5 0 L 0.28125 0 L 0.28125 -0.203125 L 0.375 -0.203125 C 0.550781 -0.203125 0.722656 -0.300781 0.890625 -0.5 C 1.054688 -0.707031 1.191406 -0.953125 1.296875 -1.234375 L 5.875 -13.4375 L 10.359375 -1.359375 C 10.453125 -1.085938 10.582031 -0.828125 10.75 -0.578125 C 10.914062 -0.328125 11.132812 -0.203125 11.40625 -0.203125 L 11.5 -0.203125 L 11.5 0 L 8.546875 0 Z M 3.953125 -6.515625 L 7.046875 -6.515625 L 5.5 -10.703125 Z M 3.953125 -6.515625 "/></g></g></g><g fill="#000000" fill-opacity="1"><g transform="translate(62.44964, 43.124997)"><g><path d="M 5.1875 -8.546875 C 5.90625 -8.546875 6.523438 -8.421875 7.046875 -8.171875 C 7.578125 -7.929688 8.015625 -7.613281 8.359375 -7.21875 C 8.703125 -6.820312 8.960938 -6.363281 9.140625 -5.84375 C 9.316406 -5.332031 9.40625 -4.8125 9.40625 -4.28125 C 9.40625 -3.726562 9.316406 -3.1875 9.140625 -2.65625 C 8.960938 -2.132812 8.695312 -1.664062 8.34375 -1.25 C 7.988281 -0.832031 7.550781 -0.492188 7.03125 -0.234375 C 6.519531 0.015625 5.921875 0.140625 5.234375 0.140625 C 4.734375 0.140625 4.273438 0.0351562 3.859375 -0.171875 C 3.441406 -0.378906 3.113281 -0.628906 2.875 -0.921875 L 2.875 0 L 0.921875 0 L 0.921875 -0.203125 C 1.015625 -0.203125 1.097656 -0.238281 1.171875 -0.3125 C 1.253906 -0.394531 1.328125 -0.488281 1.390625 -0.59375 C 1.453125 -0.707031 1.492188 -0.828125 1.515625 -0.953125 C 1.546875 -1.078125 1.5625 -1.191406 1.5625 -1.296875 L 1.5625 -11.5 C 1.5625 -11.726562 1.523438 -11.941406 1.453125 -12.140625 C 1.390625 -12.335938 1.195312 -12.441406 0.875 -12.453125 L 0.875 -12.65625 L 2.875 -13.28125 L 2.875 -7.5625 C 3.1875 -7.863281 3.550781 -8.101562 3.96875 -8.28125 C 4.382812 -8.457031 4.789062 -8.546875 5.1875 -8.546875 Z M 5.375 -0.546875 C 5.851562 -0.566406 6.265625 -0.679688 6.609375 -0.890625 C 6.960938 -1.097656 7.253906 -1.359375 7.484375 -1.671875 C 7.722656 -1.992188 7.898438 -2.359375 8.015625 -2.765625 C 8.128906 -3.171875 8.1875 -3.585938 8.1875 -4.015625 C 8.1875 -4.492188 8.117188 -4.957031 7.984375 -5.40625 C 7.847656 -5.863281 7.648438 -6.273438 7.390625 -6.640625 C 7.128906 -7.003906 6.804688 -7.296875 6.421875 -7.515625 C 6.035156 -7.734375 5.59375 -7.84375 5.09375 -7.84375 C 4.820312 -7.84375 4.550781 -7.773438 4.28125 -7.640625 C 4.007812 -7.515625 3.769531 -7.347656 3.5625 -7.140625 C 3.363281 -6.941406 3.195312 -6.695312 3.0625 -6.40625 C 2.9375 -6.125 2.875 -5.820312 2.875 -5.5 L 2.875 -3.015625 C 2.875 -2.628906 2.945312 -2.28125 3.09375 -1.96875 C 3.238281 -1.664062 3.429688 -1.40625 3.671875 -1.1875 C 3.921875 -0.976562 4.191406 -0.816406 4.484375 -0.703125 C 4.785156 -0.597656 5.082031 -0.546875 5.375 -0.546875 Z M 5.375 -0.546875 "/></g></g></g><g fill="#000000" fill-opacity="1"><g transform="translate(72.725586, 43.124997)"><g><path d="M 5.09375 0.140625 C 4.425781 0.140625 3.828125 0.03125 3.296875 -0.1875 C 2.765625 -0.40625 2.304688 -0.703125 1.921875 -1.078125 C 1.546875 -1.460938 1.253906 -1.914062 1.046875 -2.4375 C 0.835938 -2.957031 0.734375 -3.523438 0.734375 -4.140625 C 0.734375 -4.796875 0.847656 -5.390625 1.078125 -5.921875 C 1.304688 -6.460938 1.617188 -6.925781 2.015625 -7.3125 C 2.421875 -7.707031 2.894531 -8.007812 3.4375 -8.21875 C 3.988281 -8.4375 4.582031 -8.546875 5.21875 -8.546875 C 5.863281 -8.546875 6.453125 -8.441406 6.984375 -8.234375 C 7.515625 -8.023438 7.972656 -7.734375 8.359375 -7.359375 C 8.742188 -6.984375 9.039062 -6.539062 9.25 -6.03125 C 9.46875 -5.519531 9.578125 -4.957031 9.578125 -4.34375 C 9.578125 -3.769531 9.476562 -3.210938 9.28125 -2.671875 C 9.09375 -2.128906 8.804688 -1.648438 8.421875 -1.234375 C 8.046875 -0.828125 7.582031 -0.492188 7.03125 -0.234375 C 6.476562 0.015625 5.832031 0.140625 5.09375 0.140625 Z M 4.984375 -7.875 C 4.503906 -7.851562 4.078125 -7.738281 3.703125 -7.53125 C 3.335938 -7.320312 3.03125 -7.050781 2.78125 -6.71875 C 2.539062 -6.394531 2.359375 -6.023438 2.234375 -5.609375 C 2.109375 -5.203125 2.046875 -4.785156 2.046875 -4.359375 C 2.046875 -3.867188 2.117188 -3.390625 2.265625 -2.921875 C 2.421875 -2.460938 2.640625 -2.050781 2.921875 -1.6875 C 3.210938 -1.332031 3.554688 -1.046875 3.953125 -0.828125 C 4.359375 -0.617188 4.804688 -0.515625 5.296875 -0.515625 C 5.796875 -0.515625 6.234375 -0.617188 6.609375 -0.828125 C 6.992188 -1.046875 7.3125 -1.328125 7.5625 -1.671875 C 7.8125 -2.015625 8 -2.394531 8.125 -2.8125 C 8.25 -3.238281 8.3125 -3.664062 8.3125 -4.09375 C 8.3125 -4.539062 8.242188 -4.984375 8.109375 -5.421875 C 7.984375 -5.867188 7.78125 -6.273438 7.5 -6.640625 C 7.21875 -7.015625 6.863281 -7.3125 6.4375 -7.53125 C 6.019531 -7.757812 5.535156 -7.875 4.984375 -7.875 Z M 4.984375 -7.875 "/></g></g></g><g fill="#000000" fill-opacity="1"><g transform="translate(83.181457, 43.124997)"><g><path d="M 8.8125 -1.296875 C 8.8125 -1.203125 8.828125 -1.09375 8.859375 -0.96875 C 8.890625 -0.84375 8.925781 -0.722656 8.96875 -0.609375 C 9.019531 -0.492188 9.082031 -0.394531 9.15625 -0.3125 C 9.238281 -0.238281 9.332031 -0.203125 9.4375 -0.203125 L 9.4375 0 L 7.5 0 L 7.5 -1.09375 C 7.300781 -0.800781 7.007812 -0.515625 6.625 -0.234375 C 6.238281 0.046875 5.738281 0.1875 5.125 0.1875 C 4.34375 0.1875 3.722656 0.0507812 3.265625 -0.21875 C 2.816406 -0.488281 2.472656 -0.828125 2.234375 -1.234375 C 1.992188 -1.648438 1.84375 -2.097656 1.78125 -2.578125 C 1.71875 -3.066406 1.6875 -3.523438 1.6875 -3.953125 L 1.6875 -6.8125 C 1.6875 -6.9375 1.679688 -7.054688 1.671875 -7.171875 C 1.660156 -7.285156 1.628906 -7.390625 1.578125 -7.484375 C 1.535156 -7.578125 1.46875 -7.648438 1.375 -7.703125 C 1.28125 -7.765625 1.148438 -7.796875 0.984375 -7.796875 L 0.984375 -7.984375 L 3 -8.625 L 3 -3.515625 C 3 -2.503906 3.21875 -1.757812 3.65625 -1.28125 C 4.09375 -0.800781 4.632812 -0.5625 5.28125 -0.5625 C 5.625 -0.5625 5.929688 -0.632812 6.203125 -0.78125 C 6.484375 -0.9375 6.71875 -1.117188 6.90625 -1.328125 C 7.101562 -1.546875 7.25 -1.769531 7.34375 -2 C 7.445312 -2.226562 7.5 -2.414062 7.5 -2.5625 L 7.5 -6.8125 C 7.5 -6.9375 7.492188 -7.054688 7.484375 -7.171875 C 7.484375 -7.285156 7.457031 -7.390625 7.40625 -7.484375 C 7.363281 -7.578125 7.296875 -7.648438 7.203125 -7.703125 C 7.109375 -7.765625 6.972656 -7.796875 6.796875 -7.796875 L 6.796875 -7.984375 L 8.8125 -8.625 Z M 8.8125 -1.296875 "/></g></g></g><g fill="#000000" fill-opacity="1"><g transform="translate(93.657321, 43.124997)"><g><path d="M 2.859375 -7.71875 L 2.859375 -2.90625 C 2.859375 -2.550781 2.863281 -2.234375 2.875 -1.953125 C 2.894531 -1.679688 2.929688 -1.453125 2.984375 -1.265625 C 3.035156 -1.078125 3.113281 -0.929688 3.21875 -0.828125 C 3.320312 -0.734375 3.46875 -0.6875 3.65625 -0.6875 C 3.9375 -0.6875 4.195312 -0.816406 4.4375 -1.078125 C 4.6875 -1.347656 4.847656 -1.671875 4.921875 -2.046875 L 5.09375 -2.046875 L 5.09375 -0.578125 C 4.976562 -0.578125 4.878906 -0.535156 4.796875 -0.453125 C 4.691406 -0.359375 4.539062 -0.257812 4.34375 -0.15625 C 4.15625 -0.0507812 3.867188 0 3.484375 0 C 3.003906 0 2.628906 -0.09375 2.359375 -0.28125 C 2.085938 -0.46875 1.890625 -0.710938 1.765625 -1.015625 C 1.648438 -1.328125 1.582031 -1.664062 1.5625 -2.03125 C 1.550781 -2.40625 1.546875 -2.789062 1.546875 -3.1875 L 1.546875 -7.71875 L 0.421875 -7.71875 L 0.421875 -8.40625 L 1.546875 -8.40625 L 1.546875 -10.1875 C 1.546875 -10.40625 1.515625 -10.609375 1.453125 -10.796875 C 1.390625 -10.992188 1.191406 -11.101562 0.859375 -11.125 L 0.859375 -11.3125 L 2.859375 -11.953125 L 2.859375 -8.40625 L 5.09375 -8.40625 L 5.09375 -7.71875 Z M 2.859375 -7.71875 "/></g></g></g></svg>