<svg xmlns="http://www.w3.org/2000/svg" xmlns:xlink="http://www.w3.org/1999/xlink" width="200" zoomAndPan="magnify" viewBox="0 0 150 74.999997" height="100" preserveAspectRatio="xMidYMid meet" version="1.0"><defs><g/></defs><rect x="-15" width="180" fill="#ffffff" y="-7.5" height="89.999996" fill-opacity="1"/><rect x="-15" width="180" fill="#ffffff" y="-7.5" height="89.999996" fill-opacity="1"/><rect x="-15" width="180" fill="#ffffff" y="-7.5" height="89.999996" fill-opacity="1"/><g fill="#000000" fill-opacity="1"><g transform="translate(18.550783, 43.124997)"><g><path d="M 7.9375 -12.6875 C 6.945312 -12.6875 6.085938 -12.507812 5.359375 -12.15625 C 4.640625 -11.800781 4.039062 -11.335938 3.5625 -10.765625 C 3.082031 -10.203125 2.722656 -9.566406 2.484375 -8.859375 C 2.253906 -8.148438 2.140625 -7.453125 2.140625 -6.765625 C 2.140625 -5.972656 2.289062 -5.195312 2.59375 -4.4375 C 2.90625 -3.6875 3.332031 -3.019531 3.875 -2.4375 C 4.414062 -1.863281 5.046875 -1.398438 5.765625 -1.046875 C 6.484375 -0.691406 7.257812 -0.515625 8.09375 -0.515625 C 8.332031 -0.515625 8.613281 -0.539062 8.9375 -0.59375 C 9.269531 -0.65625 9.597656 -0.757812 9.921875 -0.90625 C 10.242188 -1.0625 10.539062 -1.28125 10.8125 -1.5625 C 11.082031 -1.84375 11.289062 -2.207031 11.4375 -2.65625 L 11.640625 -2.65625 L 11.640625 -0.4375 C 11.441406 -0.4375 11.234375 -0.410156 11.015625 -0.359375 C 10.796875 -0.304688 10.550781 -0.25 10.28125 -0.1875 C 9.9375 -0.09375 9.550781 -0.00390625 9.125 0.078125 C 8.707031 0.160156 8.265625 0.203125 7.796875 0.203125 C 6.640625 0.203125 5.617188 0.00390625 4.734375 -0.390625 C 3.859375 -0.796875 3.125 -1.316406 2.53125 -1.953125 C 1.945312 -2.597656 1.507812 -3.320312 1.21875 -4.125 C 0.925781 -4.9375 0.78125 -5.753906 0.78125 -6.578125 C 0.78125 -7.398438 0.925781 -8.21875 1.21875 -9.03125 C 1.507812 -9.851562 1.953125 -10.585938 2.546875 -11.234375 C 3.148438 -11.878906 3.90625 -12.398438 4.8125 -12.796875 C 5.726562 -13.203125 6.796875 -13.40625 8.015625 -13.40625 C 8.460938 -13.40625 8.859375 -13.363281 9.203125 -13.28125 C 9.554688 -13.195312 9.875 -13.117188 10.15625 -13.046875 C 10.351562 -12.972656 10.535156 -12.921875 10.703125 -12.890625 C 10.867188 -12.859375 11.035156 -12.84375 11.203125 -12.84375 L 11.203125 -10.625 L 11 -10.625 C 10.914062 -11.03125 10.765625 -11.367188 10.546875 -11.640625 C 10.335938 -11.921875 10.085938 -12.132812 9.796875 -12.28125 C 9.515625 -12.425781 9.210938 -12.53125 8.890625 -12.59375 C 8.566406 -12.65625 8.25 -12.6875 7.9375 -12.6875 Z M 7.9375 -12.6875 "/></g></g></g><g fill="#000000" fill-opacity="1"><g transform="translate(31.005868, 43.124997)"><g><path d="M 5.09375 0.140625 C 4.425781 0.140625 3.828125 0.03125 3.296875 -0.1875 C 2.765625 -0.40625 2.304688 -0.703125 1.921875 -1.078125 C 1.546875 -1.460938 1.253906 -1.914062 1.046875 -2.4375 C 0.835938 -2.957031 0.734375 -3.523438 0.734375 -4.140625 C 0.734375 -4.796875 0.847656 -5.390625 1.078125 -5.921875 C 1.304688 -6.460938 1.617188 -6.925781 2.015625 -7.3125 C 2.421875 -7.707031 2.894531 -8.007812 3.4375 -8.21875 C 3.988281 -8.4375 4.582031 -8.546875 5.21875 -8.546875 C 5.863281 -8.546875 6.453125 -8.441406 6.984375 -8.234375 C 7.515625 -8.023438 7.972656 -7.734375 8.359375 -7.359375 C 8.742188 -6.984375 9.039062 -6.539062 9.25 -6.03125 C 9.46875 -5.519531 9.578125 -4.957031 9.578125 -4.34375 C 9.578125 -3.769531 9.476562 -3.210938 9.28125 -2.671875 C 9.09375 -2.128906 8.804688 -1.648438 8.421875 -1.234375 C 8.046875 -0.828125 7.582031 -0.492188 7.03125 -0.234375 C 6.476562 0.015625 5.832031 0.140625 5.09375 0.140625 Z M 4.984375 -7.875 C 4.503906 -7.851562 4.078125 -7.738281 3.703125 -7.53125 C 3.335938 -7.320312 3.03125 -7.050781 2.78125 -6.71875 C 2.539062 -6.394531 2.359375 -6.023438 2.234375 -5.609375 C 2.109375 -5.203125 2.046875 -4.785156 2.046875 -4.359375 C 2.046875 -3.867188 2.117188 -3.390625 2.265625 -2.921875 C 2.421875 -2.460938 2.640625 -2.050781 2.921875 -1.6875 C 3.210938 -1.332031 3.554688 -1.046875 3.953125 -0.828125 C 4.359375 -0.617188 4.804688 -0.515625 5.296875 -0.515625 C 5.796875 -0.515625 6.234375 -0.617188 6.609375 -0.828125 C 6.992188 -1.046875 7.3125 -1.328125 7.5625 -1.671875 C 7.8125 -2.015625 8 -2.394531 8.125 -2.8125 C 8.25 -3.238281 8.3125 -3.664062 8.3125 -4.09375 C 8.3125 -4.539062 8.242188 -4.984375 8.109375 -5.421875 C 7.984375 -5.867188 7.78125 -6.273438 7.5 -6.640625 C 7.21875 -7.015625 6.863281 -7.3125 6.4375 -7.53125 C 6.019531 -7.757812 5.535156 -7.875 4.984375 -7.875 Z M 4.984375 -7.875 "/></g></g></g><g fill="#000000" fill-opacity="1"><g transform="translate(41.461738, 43.124997)"><g><path d="M 13.703125 -1.296875 C 13.703125 -1.191406 13.710938 -1.078125 13.734375 -0.953125 C 13.765625 -0.828125 13.804688 -0.707031 13.859375 -0.59375 C 13.910156 -0.488281 13.972656 -0.394531 14.046875 -0.3125 C 14.117188 -0.238281 14.207031 -0.203125 14.3125 -0.203125 L 14.3125 0 L 11.71875 0 L 11.71875 -0.203125 C 11.820312 -0.203125 11.914062 -0.238281 12 -0.3125 C 12.082031 -0.394531 12.148438 -0.488281 12.203125 -0.59375 C 12.265625 -0.707031 12.304688 -0.828125 12.328125 -0.953125 C 12.359375 -1.078125 12.375 -1.191406 12.375 -1.296875 L 12.375 -5.625 C 12.375 -5.925781 12.332031 -6.21875 12.25 -6.5 C 12.164062 -6.78125 12.035156 -7.023438 11.859375 -7.234375 C 11.679688 -7.441406 11.46875 -7.609375 11.21875 -7.734375 C 10.96875 -7.859375 10.679688 -7.921875 10.359375 -7.921875 C 9.992188 -7.921875 9.679688 -7.835938 9.421875 -7.671875 C 9.171875 -7.503906 8.960938 -7.300781 8.796875 -7.0625 C 8.628906 -6.820312 8.503906 -6.578125 8.421875 -6.328125 C 8.335938 -6.078125 8.296875 -5.875 8.296875 -5.71875 L 8.296875 -1.296875 C 8.296875 -1.191406 8.304688 -1.078125 8.328125 -0.953125 C 8.359375 -0.828125 8.40625 -0.707031 8.46875 -0.59375 C 8.53125 -0.488281 8.597656 -0.394531 8.671875 -0.3125 C 8.742188 -0.238281 8.832031 -0.203125 8.9375 -0.203125 L 8.9375 0 L 6.359375 0 L 6.359375 -0.203125 C 6.453125 -0.203125 6.535156 -0.238281 6.609375 -0.3125 C 6.691406 -0.394531 6.765625 -0.488281 6.828125 -0.59375 C 6.890625 -0.707031 6.929688 -0.828125 6.953125 -0.953125 C 6.984375 -1.078125 7 -1.191406 7 -1.296875 L 7 -5.734375 C 7 -6.054688 6.941406 -6.351562 6.828125 -6.625 C 6.710938 -6.90625 6.554688 -7.132812 6.359375 -7.3125 C 6.171875 -7.5 5.953125 -7.644531 5.703125 -7.75 C 5.460938 -7.863281 5.210938 -7.921875 4.953125 -7.921875 C 4.609375 -7.921875 4.304688 -7.851562 4.046875 -7.71875 C 3.785156 -7.582031 3.570312 -7.414062 3.40625 -7.21875 C 3.238281 -7.019531 3.113281 -6.800781 3.03125 -6.5625 C 2.945312 -6.332031 2.90625 -6.113281 2.90625 -5.90625 L 2.90625 -1.296875 C 2.90625 -1.191406 2.914062 -1.078125 2.9375 -0.953125 C 2.96875 -0.828125 3.007812 -0.707031 3.0625 -0.59375 C 3.125 -0.488281 3.191406 -0.394531 3.265625 -0.3125 C 3.335938 -0.238281 3.429688 -0.203125 3.546875 -0.203125 L 3.546875 0 L 0.953125 0 L 0.953125 -0.203125 C 1.046875 -0.203125 1.132812 -0.238281 1.21875 -0.3125 C 1.300781 -0.394531 1.367188 -0.488281 1.421875 -0.59375 C 1.484375 -0.707031 1.523438 -0.828125 1.546875 -0.953125 C 1.578125 -1.078125 1.59375 -1.191406 1.59375 -1.296875 L 1.59375 -6.640625 C 1.59375 -6.742188 1.585938 -6.863281 1.578125 -7 C 1.566406 -7.132812 1.539062 -7.257812 1.5 -7.375 C 1.457031 -7.5 1.390625 -7.597656 1.296875 -7.671875 C 1.203125 -7.753906 1.078125 -7.796875 0.921875 -7.796875 L 0.921875 -7.984375 L 2.90625 -8.640625 L 2.90625 -7.625 C 3.101562 -7.84375 3.378906 -8.054688 3.734375 -8.265625 C 4.085938 -8.484375 4.550781 -8.59375 5.125 -8.59375 C 5.5 -8.59375 5.832031 -8.539062 6.125 -8.4375 C 6.414062 -8.332031 6.671875 -8.195312 6.890625 -8.03125 C 7.109375 -7.863281 7.296875 -7.671875 7.453125 -7.453125 C 7.617188 -7.242188 7.753906 -7.039062 7.859375 -6.84375 C 7.960938 -7.039062 8.085938 -7.242188 8.234375 -7.453125 C 8.378906 -7.660156 8.554688 -7.847656 8.765625 -8.015625 C 8.972656 -8.191406 9.21875 -8.332031 9.5 -8.4375 C 9.789062 -8.539062 10.128906 -8.59375 10.515625 -8.59375 C 11.265625 -8.59375 11.851562 -8.457031 12.28125 -8.1875 C 12.707031 -7.925781 13.023438 -7.609375 13.234375 -7.234375 C 13.441406 -6.867188 13.570312 -6.476562 13.625 -6.0625 C 13.675781 -5.65625 13.703125 -5.316406 13.703125 -5.046875 Z M 13.703125 -1.296875 "/></g></g></g><g fill="#000000" fill-opacity="1"><g transform="translate(56.915644, 43.124997)"><g><path d="M 1.1875 0 L 1.1875 -0.203125 C 1.289062 -0.203125 1.378906 -0.238281 1.453125 -0.3125 C 1.535156 -0.394531 1.601562 -0.488281 1.65625 -0.59375 C 1.707031 -0.707031 1.742188 -0.828125 1.765625 -0.953125 C 1.796875 -1.078125 1.8125 -1.191406 1.8125 -1.296875 L 1.8125 -6.84375 C 1.8125 -7.070312 1.78125 -7.285156 1.71875 -7.484375 C 1.65625 -7.691406 1.460938 -7.800781 1.140625 -7.8125 L 1.140625 -8 L 3.140625 -8.640625 L 3.140625 -1.296875 C 3.140625 -1.191406 3.148438 -1.078125 3.171875 -0.953125 C 3.203125 -0.828125 3.242188 -0.707031 3.296875 -0.59375 C 3.347656 -0.488281 3.414062 -0.394531 3.5 -0.3125 C 3.582031 -0.238281 3.675781 -0.203125 3.78125 -0.203125 L 3.78125 0 Z M 1.28125 -10.5625 C 1.28125 -10.820312 1.367188 -11.046875 1.546875 -11.234375 C 1.722656 -11.421875 1.945312 -11.515625 2.21875 -11.515625 C 2.488281 -11.515625 2.71875 -11.421875 2.90625 -11.234375 C 3.09375 -11.046875 3.1875 -10.820312 3.1875 -10.5625 C 3.1875 -10.289062 3.09375 -10.066406 2.90625 -9.890625 C 2.71875 -9.722656 2.488281 -9.640625 2.21875 -9.640625 C 1.945312 -9.640625 1.722656 -9.722656 1.546875 -9.890625 C 1.367188 -10.066406 1.28125 -10.289062 1.28125 -10.5625 Z M 1.28125 -10.5625 "/></g></g></g><g fill="#000000" fill-opacity="1"><g transform="translate(61.93366, 43.124997)"><g><path d="M 8.9375 -1.296875 C 8.9375 -1.191406 8.945312 -1.078125 8.96875 -0.953125 C 9 -0.828125 9.046875 -0.707031 9.109375 -0.59375 C 9.171875 -0.488281 9.238281 -0.394531 9.3125 -0.3125 C 9.382812 -0.238281 9.472656 -0.203125 9.578125 -0.203125 L 9.578125 0 L 7 0 L 7 -0.203125 C 7.09375 -0.203125 7.175781 -0.238281 7.25 -0.3125 C 7.332031 -0.394531 7.40625 -0.488281 7.46875 -0.59375 C 7.53125 -0.707031 7.570312 -0.828125 7.59375 -0.953125 C 7.625 -1.078125 7.640625 -1.191406 7.640625 -1.296875 L 7.640625 -5.015625 C 7.640625 -5.492188 7.570312 -5.910156 7.4375 -6.265625 C 7.300781 -6.628906 7.117188 -6.929688 6.890625 -7.171875 C 6.671875 -7.421875 6.414062 -7.597656 6.125 -7.703125 C 5.84375 -7.816406 5.554688 -7.875 5.265625 -7.875 C 4.960938 -7.875 4.664062 -7.8125 4.375 -7.6875 C 4.09375 -7.570312 3.84375 -7.414062 3.625 -7.21875 C 3.40625 -7.03125 3.222656 -6.804688 3.078125 -6.546875 C 2.941406 -6.285156 2.875 -6.015625 2.875 -5.734375 L 2.875 -1.296875 C 2.875 -1.191406 2.882812 -1.078125 2.90625 -0.953125 C 2.9375 -0.828125 2.984375 -0.707031 3.046875 -0.59375 C 3.109375 -0.488281 3.175781 -0.394531 3.25 -0.3125 C 3.320312 -0.238281 3.410156 -0.203125 3.515625 -0.203125 L 3.515625 0 L 0.921875 0 L 0.921875 -0.203125 C 1.015625 -0.203125 1.097656 -0.238281 1.171875 -0.3125 C 1.253906 -0.394531 1.328125 -0.488281 1.390625 -0.59375 C 1.453125 -0.707031 1.492188 -0.828125 1.515625 -0.953125 C 1.546875 -1.078125 1.5625 -1.191406 1.5625 -1.296875 L 1.5625 -6.8125 C 1.5625 -7.039062 1.523438 -7.257812 1.453125 -7.46875 C 1.390625 -7.675781 1.195312 -7.785156 0.875 -7.796875 L 0.875 -7.984375 L 2.875 -8.625 L 2.875 -7.515625 C 2.96875 -7.628906 3.085938 -7.75 3.234375 -7.875 C 3.378906 -8 3.554688 -8.117188 3.765625 -8.234375 C 3.972656 -8.347656 4.210938 -8.441406 4.484375 -8.515625 C 4.765625 -8.585938 5.085938 -8.625 5.453125 -8.625 C 6.085938 -8.625 6.625 -8.515625 7.0625 -8.296875 C 7.5 -8.085938 7.859375 -7.8125 8.140625 -7.46875 C 8.421875 -7.125 8.625 -6.75 8.75 -6.34375 C 8.875 -5.9375 8.9375 -5.539062 8.9375 -5.15625 Z M 8.9375 -1.296875 "/></g></g></g><g fill="#000000" fill-opacity="1"><g transform="translate(72.569466, 43.124997)"><g><path d="M 5.0625 3.71875 C 5.457031 3.71875 5.832031 3.679688 6.1875 3.609375 C 6.550781 3.535156 6.867188 3.429688 7.140625 3.296875 C 7.421875 3.160156 7.640625 3 7.796875 2.8125 C 7.960938 2.632812 8.046875 2.4375 8.046875 2.21875 C 8.046875 1.988281 7.929688 1.796875 7.703125 1.640625 C 7.484375 1.484375 7.1875 1.34375 6.8125 1.21875 C 6.445312 1.101562 6.015625 1 5.515625 0.90625 C 5.023438 0.820312 4.515625 0.734375 3.984375 0.640625 L 2.953125 0.453125 C 2.648438 0.691406 2.4375 0.945312 2.3125 1.21875 C 2.195312 1.488281 2.140625 1.722656 2.140625 1.921875 C 2.140625 2.203125 2.210938 2.453125 2.359375 2.671875 C 2.515625 2.890625 2.722656 3.078125 2.984375 3.234375 C 3.242188 3.398438 3.550781 3.519531 3.90625 3.59375 C 4.257812 3.675781 4.644531 3.71875 5.0625 3.71875 Z M 6.15625 -0.28125 C 6.6875 -0.195312 7.128906 -0.09375 7.484375 0.03125 C 7.835938 0.164062 8.117188 0.320312 8.328125 0.5 C 8.546875 0.6875 8.695312 0.890625 8.78125 1.109375 C 8.863281 1.328125 8.90625 1.5625 8.90625 1.8125 C 8.90625 2.269531 8.78125 2.664062 8.53125 3 C 8.28125 3.332031 7.957031 3.609375 7.5625 3.828125 C 7.175781 4.046875 6.734375 4.207031 6.234375 4.3125 C 5.734375 4.425781 5.222656 4.484375 4.703125 4.484375 C 4.191406 4.484375 3.703125 4.429688 3.234375 4.328125 C 2.773438 4.234375 2.363281 4.082031 2 3.875 C 1.632812 3.675781 1.34375 3.425781 1.125 3.125 C 0.914062 2.832031 0.8125 2.488281 0.8125 2.09375 C 0.8125 1.75 0.914062 1.421875 1.125 1.109375 C 1.34375 0.796875 1.695312 0.488281 2.1875 0.1875 C 1.71875 -0.0625 1.359375 -0.390625 1.109375 -0.796875 C 0.859375 -1.203125 0.734375 -1.617188 0.734375 -2.046875 C 0.734375 -2.296875 0.789062 -2.539062 0.90625 -2.78125 C 1.03125 -3.03125 1.226562 -3.265625 1.5 -3.484375 C 1.269531 -3.742188 1.109375 -4.007812 1.015625 -4.28125 C 0.921875 -4.550781 0.875 -4.835938 0.875 -5.140625 C 0.875 -5.617188 0.972656 -6.0625 1.171875 -6.46875 C 1.378906 -6.882812 1.65625 -7.242188 2 -7.546875 C 2.34375 -7.859375 2.75 -8.101562 3.21875 -8.28125 C 3.6875 -8.457031 4.1875 -8.546875 4.71875 -8.546875 C 5.28125 -8.546875 5.8125 -8.445312 6.3125 -8.25 C 6.820312 -8.050781 7.25 -7.800781 7.59375 -7.5 L 9.046875 -7.5 L 9.046875 -6.78125 L 8.125 -6.78125 C 8.21875 -6.582031 8.3125 -6.34375 8.40625 -6.0625 C 8.5 -5.789062 8.546875 -5.507812 8.546875 -5.21875 C 8.546875 -4.789062 8.441406 -4.382812 8.234375 -4 C 8.035156 -3.625 7.757812 -3.289062 7.40625 -3 C 7.050781 -2.71875 6.632812 -2.492188 6.15625 -2.328125 C 5.6875 -2.160156 5.1875 -2.078125 4.65625 -2.078125 C 4.164062 -2.078125 3.6875 -2.148438 3.21875 -2.296875 C 2.75 -2.441406 2.335938 -2.65625 1.984375 -2.9375 C 1.835938 -2.84375 1.734375 -2.722656 1.671875 -2.578125 C 1.617188 -2.441406 1.59375 -2.300781 1.59375 -2.15625 C 1.59375 -1.726562 1.785156 -1.394531 2.171875 -1.15625 C 2.566406 -0.925781 3.0625 -0.769531 3.65625 -0.6875 Z M 4.484375 -7.84375 C 4.160156 -7.84375 3.859375 -7.785156 3.578125 -7.671875 C 3.296875 -7.554688 3.046875 -7.398438 2.828125 -7.203125 C 2.617188 -7.003906 2.453125 -6.757812 2.328125 -6.46875 C 2.203125 -6.1875 2.140625 -5.863281 2.140625 -5.5 C 2.140625 -5.0625 2.226562 -4.664062 2.40625 -4.3125 C 2.59375 -3.96875 2.820312 -3.679688 3.09375 -3.453125 C 3.375 -3.234375 3.6875 -3.0625 4.03125 -2.9375 C 4.375 -2.820312 4.695312 -2.765625 5 -2.765625 C 5.332031 -2.765625 5.632812 -2.828125 5.90625 -2.953125 C 6.175781 -3.078125 6.410156 -3.25 6.609375 -3.46875 C 6.816406 -3.6875 6.972656 -3.941406 7.078125 -4.234375 C 7.179688 -4.535156 7.234375 -4.84375 7.234375 -5.15625 C 7.234375 -5.5625 7.15625 -5.929688 7 -6.265625 C 6.84375 -6.597656 6.632812 -6.878906 6.375 -7.109375 C 6.113281 -7.335938 5.816406 -7.515625 5.484375 -7.640625 C 5.148438 -7.773438 4.816406 -7.84375 4.484375 -7.84375 Z M 4.484375 -7.84375 "/></g></g></g><g fill="#000000" fill-opacity="1"><g transform="translate(82.465561, 43.124997)"><g/></g></g><g fill="#000000" fill-opacity="1"><g transform="translate(87.663513, 43.124997)"><g><path d="M 7.40625 -2.28125 C 7.40625 -1.9375 7.316406 -1.613281 7.140625 -1.3125 C 6.960938 -1.019531 6.722656 -0.765625 6.421875 -0.546875 C 6.128906 -0.328125 5.78125 -0.15625 5.375 -0.03125 C 4.976562 0.09375 4.546875 0.15625 4.078125 0.15625 C 3.503906 0.15625 3.035156 0.0820312 2.671875 -0.0625 C 2.316406 -0.21875 2.015625 -0.378906 1.765625 -0.546875 C 1.585938 -0.648438 1.425781 -0.738281 1.28125 -0.8125 C 1.132812 -0.882812 0.972656 -0.921875 0.796875 -0.921875 L 0.796875 -2.4375 L 1 -2.4375 C 1.039062 -2.25 1.15625 -2.046875 1.34375 -1.828125 C 1.539062 -1.609375 1.773438 -1.40625 2.046875 -1.21875 C 2.316406 -1.03125 2.613281 -0.875 2.9375 -0.75 C 3.269531 -0.625 3.601562 -0.5625 3.9375 -0.5625 C 4.175781 -0.5625 4.421875 -0.585938 4.671875 -0.640625 C 4.929688 -0.691406 5.164062 -0.773438 5.375 -0.890625 C 5.582031 -1.015625 5.753906 -1.164062 5.890625 -1.34375 C 6.023438 -1.53125 6.09375 -1.75 6.09375 -2 C 6.09375 -2.25 6.019531 -2.46875 5.875 -2.65625 C 5.726562 -2.84375 5.539062 -3.003906 5.3125 -3.140625 C 5.09375 -3.285156 4.832031 -3.410156 4.53125 -3.515625 C 4.238281 -3.628906 3.945312 -3.726562 3.65625 -3.8125 C 3.3125 -3.925781 2.960938 -4.046875 2.609375 -4.171875 C 2.253906 -4.304688 1.9375 -4.460938 1.65625 -4.640625 C 1.375 -4.828125 1.144531 -5.050781 0.96875 -5.3125 C 0.800781 -5.570312 0.71875 -5.878906 0.71875 -6.234375 C 0.71875 -6.546875 0.773438 -6.84375 0.890625 -7.125 C 1.003906 -7.40625 1.191406 -7.644531 1.453125 -7.84375 C 1.710938 -8.050781 2.046875 -8.21875 2.453125 -8.34375 C 2.867188 -8.476562 3.367188 -8.546875 3.953125 -8.546875 C 4.472656 -8.546875 4.875 -8.5 5.15625 -8.40625 C 5.445312 -8.320312 5.6875 -8.234375 5.875 -8.140625 C 6 -8.078125 6.117188 -8.023438 6.234375 -7.984375 C 6.359375 -7.953125 6.492188 -7.9375 6.640625 -7.9375 L 6.640625 -6.546875 L 6.484375 -6.546875 C 6.242188 -6.984375 5.875 -7.3125 5.375 -7.53125 C 4.882812 -7.757812 4.378906 -7.875 3.859375 -7.875 C 3.523438 -7.875 3.238281 -7.832031 3 -7.75 C 2.757812 -7.664062 2.5625 -7.554688 2.40625 -7.421875 C 2.257812 -7.296875 2.144531 -7.15625 2.0625 -7 C 1.988281 -6.84375 1.953125 -6.679688 1.953125 -6.515625 C 1.953125 -6.296875 2.015625 -6.101562 2.140625 -5.9375 C 2.273438 -5.78125 2.453125 -5.640625 2.671875 -5.515625 C 2.890625 -5.398438 3.132812 -5.285156 3.40625 -5.171875 C 3.675781 -5.066406 3.96875 -4.96875 4.28125 -4.875 C 4.65625 -4.757812 5.023438 -4.628906 5.390625 -4.484375 C 5.765625 -4.347656 6.097656 -4.179688 6.390625 -3.984375 C 6.691406 -3.785156 6.9375 -3.546875 7.125 -3.265625 C 7.3125 -2.992188 7.40625 -2.664062 7.40625 -2.28125 Z M 7.40625 -2.28125 "/></g></g></g><g fill="#000000" fill-opacity="1"><g transform="translate(95.880267, 43.124997)"><g><path d="M 5.09375 0.140625 C 4.425781 0.140625 3.828125 0.03125 3.296875 -0.1875 C 2.765625 -0.40625 2.304688 -0.703125 1.921875 -1.078125 C 1.546875 -1.460938 1.253906 -1.914062 1.046875 -2.4375 C 0.835938 -2.957031 0.734375 -3.523438 0.734375 -4.140625 C 0.734375 -4.796875 0.847656 -5.390625 1.078125 -5.921875 C 1.304688 -6.460938 1.617188 -6.925781 2.015625 -7.3125 C 2.421875 -7.707031 2.894531 -8.007812 3.4375 -8.21875 C 3.988281 -8.4375 4.582031 -8.546875 5.21875 -8.546875 C 5.863281 -8.546875 6.453125 -8.441406 6.984375 -8.234375 C 7.515625 -8.023438 7.972656 -7.734375 8.359375 -7.359375 C 8.742188 -6.984375 9.039062 -6.539062 9.25 -6.03125 C 9.46875 -5.519531 9.578125 -4.957031 9.578125 -4.34375 C 9.578125 -3.769531 9.476562 -3.210938 9.28125 -2.671875 C 9.09375 -2.128906 8.804688 -1.648438 8.421875 -1.234375 C 8.046875 -0.828125 7.582031 -0.492188 7.03125 -0.234375 C 6.476562 0.015625 5.832031 0.140625 5.09375 0.140625 Z M 4.984375 -7.875 C 4.503906 -7.851562 4.078125 -7.738281 3.703125 -7.53125 C 3.335938 -7.320312 3.03125 -7.050781 2.78125 -6.71875 C 2.539062 -6.394531 2.359375 -6.023438 2.234375 -5.609375 C 2.109375 -5.203125 2.046875 -4.785156 2.046875 -4.359375 C 2.046875 -3.867188 2.117188 -3.390625 2.265625 -2.921875 C 2.421875 -2.460938 2.640625 -2.050781 2.921875 -1.6875 C 3.210938 -1.332031 3.554688 -1.046875 3.953125 -0.828125 C 4.359375 -0.617188 4.804688 -0.515625 5.296875 -0.515625 C 5.796875 -0.515625 6.234375 -0.617188 6.609375 -0.828125 C 6.992188 -1.046875 7.3125 -1.328125 7.5625 -1.671875 C 7.8125 -2.015625 8 -2.394531 8.125 -2.8125 C 8.25 -3.238281 8.3125 -3.664062 8.3125 -4.09375 C 8.3125 -4.539062 8.242188 -4.984375 8.109375 -5.421875 C 7.984375 -5.867188 7.78125 -6.273438 7.5 -6.640625 C 7.21875 -7.015625 6.863281 -7.3125 6.4375 -7.53125 C 6.019531 -7.757812 5.535156 -7.875 4.984375 -7.875 Z M 4.984375 -7.875 "/></g></g></g><g fill="#000000" fill-opacity="1"><g transform="translate(106.336138, 43.124997)"><g><path d="M 5.09375 0.140625 C 4.425781 0.140625 3.828125 0.03125 3.296875 -0.1875 C 2.765625 -0.40625 2.304688 -0.703125 1.921875 -1.078125 C 1.546875 -1.460938 1.253906 -1.914062 1.046875 -2.4375 C 0.835938 -2.957031 0.734375 -3.523438 0.734375 -4.140625 C 0.734375 -4.796875 0.847656 -5.390625 1.078125 -5.921875 C 1.304688 -6.460938 1.617188 -6.925781 2.015625 -7.3125 C 2.421875 -7.707031 2.894531 -8.007812 3.4375 -8.21875 C 3.988281 -8.4375 4.582031 -8.546875 5.21875 -8.546875 C 5.863281 -8.546875 6.453125 -8.441406 6.984375 -8.234375 C 7.515625 -8.023438 7.972656 -7.734375 8.359375 -7.359375 C 8.742188 -6.984375 9.039062 -6.539062 9.25 -6.03125 C 9.46875 -5.519531 9.578125 -4.957031 9.578125 -4.34375 C 9.578125 -3.769531 9.476562 -3.210938 9.28125 -2.671875 C 9.09375 -2.128906 8.804688 -1.648438 8.421875 -1.234375 C 8.046875 -0.828125 7.582031 -0.492188 7.03125 -0.234375 C 6.476562 0.015625 5.832031 0.140625 5.09375 0.140625 Z M 4.984375 -7.875 C 4.503906 -7.851562 4.078125 -7.738281 3.703125 -7.53125 C 3.335938 -7.320312 3.03125 -7.050781 2.78125 -6.71875 C 2.539062 -6.394531 2.359375 -6.023438 2.234375 -5.609375 C 2.109375 -5.203125 2.046875 -4.785156 2.046875 -4.359375 C 2.046875 -3.867188 2.117188 -3.390625 2.265625 -2.921875 C 2.421875 -2.460938 2.640625 -2.050781 2.921875 -1.6875 C 3.210938 -1.332031 3.554688 -1.046875 3.953125 -0.828125 C 4.359375 -0.617188 4.804688 -0.515625 5.296875 -0.515625 C 5.796875 -0.515625 6.234375 -0.617188 6.609375 -0.828125 C 6.992188 -1.046875 7.3125 -1.328125 7.5625 -1.671875 C 7.8125 -2.015625 8 -2.394531 8.125 -2.8125 C 8.25 -3.238281 8.3125 -3.664062 8.3125 -4.09375 C 8.3125 -4.539062 8.242188 -4.984375 8.109375 -5.421875 C 7.984375 -5.867188 7.78125 -6.273438 7.5 -6.640625 C 7.21875 -7.015625 6.863281 -7.3125 6.4375 -7.53125 C 6.019531 -7.757812 5.535156 -7.875 4.984375 -7.875 Z M 4.984375 -7.875 "/></g></g></g><g fill="#000000" fill-opacity="1"><g transform="translate(116.792008, 43.124997)"><g><path d="M 8.9375 -1.296875 C 8.9375 -1.191406 8.945312 -1.078125 8.96875 -0.953125 C 9 -0.828125 9.046875 -0.707031 9.109375 -0.59375 C 9.171875 -0.488281 9.238281 -0.394531 9.3125 -0.3125 C 9.382812 -0.238281 9.472656 -0.203125 9.578125 -0.203125 L 9.578125 0 L 7 0 L 7 -0.203125 C 7.09375 -0.203125 7.175781 -0.238281 7.25 -0.3125 C 7.332031 -0.394531 7.40625 -0.488281 7.46875 -0.59375 C 7.53125 -0.707031 7.570312 -0.828125 7.59375 -0.953125 C 7.625 -1.078125 7.640625 -1.191406 7.640625 -1.296875 L 7.640625 -5.015625 C 7.640625 -5.492188 7.570312 -5.910156 7.4375 -6.265625 C 7.300781 -6.628906 7.117188 -6.929688 6.890625 -7.171875 C 6.671875 -7.421875 6.414062 -7.597656 6.125 -7.703125 C 5.84375 -7.816406 5.554688 -7.875 5.265625 -7.875 C 4.960938 -7.875 4.664062 -7.8125 4.375 -7.6875 C 4.09375 -7.570312 3.84375 -7.414062 3.625 -7.21875 C 3.40625 -7.03125 3.222656 -6.804688 3.078125 -6.546875 C 2.941406 -6.285156 2.875 -6.015625 2.875 -5.734375 L 2.875 -1.296875 C 2.875 -1.191406 2.882812 -1.078125 2.90625 -0.953125 C 2.9375 -0.828125 2.984375 -0.707031 3.046875 -0.59375 C 3.109375 -0.488281 3.175781 -0.394531 3.25 -0.3125 C 3.320312 -0.238281 3.410156 -0.203125 3.515625 -0.203125 L 3.515625 0 L 0.921875 0 L 0.921875 -0.203125 C 1.015625 -0.203125 1.097656 -0.238281 1.171875 -0.3125 C 1.253906 -0.394531 1.328125 -0.488281 1.390625 -0.59375 C 1.453125 -0.707031 1.492188 -0.828125 1.515625 -0.953125 C 1.546875 -1.078125 1.5625 -1.191406 1.5625 -1.296875 L 1.5625 -6.8125 C 1.5625 -7.039062 1.523438 -7.257812 1.453125 -7.46875 C 1.390625 -7.675781 1.195312 -7.785156 0.875 -7.796875 L 0.875 -7.984375 L 2.875 -8.625 L 2.875 -7.515625 C 2.96875 -7.628906 3.085938 -7.75 3.234375 -7.875 C 3.378906 -8 3.554688 -8.117188 3.765625 -8.234375 C 3.972656 -8.347656 4.210938 -8.441406 4.484375 -8.515625 C 4.765625 -8.585938 5.085938 -8.625 5.453125 -8.625 C 6.085938 -8.625 6.625 -8.515625 7.0625 -8.296875 C 7.5 -8.085938 7.859375 -7.8125 8.140625 -7.46875 C 8.421875 -7.125 8.625 -6.75 8.75 -6.34375 C 8.875 -5.9375 8.9375 -5.539062 8.9375 -5.15625 Z M 8.9375 -1.296875 "/></g></g></g><g fill="#000000" fill-opacity="1"><g transform="translate(127.427814, 43.124997)"><g><path d="M 1.046875 -0.859375 C 1.046875 -1.128906 1.132812 -1.351562 1.3125 -1.53125 C 1.488281 -1.71875 1.710938 -1.8125 1.984375 -1.8125 C 2.242188 -1.8125 2.46875 -1.71875 2.65625 -1.53125 C 2.84375 -1.351562 2.9375 -1.128906 2.9375 -0.859375 C 2.9375 -0.585938 2.84375 -0.363281 2.65625 -0.1875 C 2.46875 -0.0078125 2.242188 0.078125 1.984375 0.078125 C 1.710938 0.078125 1.488281 -0.0078125 1.3125 -0.1875 C 1.132812 -0.363281 1.046875 -0.585938 1.046875 -0.859375 Z M 1.046875 -0.859375 "/></g></g></g></svg>