<svg xmlns="http://www.w3.org/2000/svg" xmlns:xlink="http://www.w3.org/1999/xlink" width="200" zoomAndPan="magnify" viewBox="0 0 150 74.999997" height="100" preserveAspectRatio="xMidYMid meet" version="1.0"><defs><g/></defs><rect x="-15" width="180" fill="#ffffff" y="-7.5" height="89.999996" fill-opacity="1"/><rect x="-15" width="180" fill="#ffffff" y="-7.5" height="89.999996" fill-opacity="1"/><rect x="-15" width="180" fill="#ffffff" y="-7.5" height="89.999996" fill-opacity="1"/><g fill="#000000" fill-opacity="1"><g transform="translate(7.757815, 43.124997)"><g><path d="M 7.9375 -12.6875 C 6.945312 -12.6875 6.085938 -12.507812 5.359375 -12.15625 C 4.640625 -11.800781 4.039062 -11.335938 3.5625 -10.765625 C 3.082031 -10.203125 2.722656 -9.566406 2.484375 -8.859375 C 2.253906 -8.148438 2.140625 -7.453125 2.140625 -6.765625 C 2.140625 -5.972656 2.289062 -5.195312 2.59375 -4.4375 C 2.90625 -3.6875 3.332031 -3.019531 3.875 -2.4375 C 4.414062 -1.863281 5.046875 -1.398438 5.765625 -1.046875 C 6.484375 -0.691406 7.257812 -0.515625 8.09375 -0.515625 C 8.332031 -0.515625 8.613281 -0.539062 8.9375 -0.59375 C 9.269531 -0.65625 9.597656 -0.757812 9.921875 -0.90625 C 10.242188 -1.0625 10.539062 -1.28125 10.8125 -1.5625 C 11.082031 -1.84375 11.289062 -2.207031 11.4375 -2.65625 L 11.640625 -2.65625 L 11.640625 -0.4375 C 11.441406 -0.4375 11.234375 -0.410156 11.015625 -0.359375 C 10.796875 -0.304688 10.550781 -0.25 10.28125 -0.1875 C 9.9375 -0.09375 9.550781 -0.00390625 9.125 0.078125 C 8.707031 0.160156 8.265625 0.203125 7.796875 0.203125 C 6.640625 0.203125 5.617188 0.00390625 4.734375 -0.390625 C 3.859375 -0.796875 3.125 -1.316406 2.53125 -1.953125 C 1.945312 -2.597656 1.507812 -3.320312 1.21875 -4.125 C 0.925781 -4.9375 0.78125 -5.753906 0.78125 -6.578125 C 0.78125 -7.398438 0.925781 -8.21875 1.21875 -9.03125 C 1.507812 -9.851562 1.953125 -10.585938 2.546875 -11.234375 C 3.148438 -11.878906 3.90625 -12.398438 4.8125 -12.796875 C 5.726562 -13.203125 6.796875 -13.40625 8.015625 -13.40625 C 8.460938 -13.40625 8.859375 -13.363281 9.203125 -13.28125 C 9.554688 -13.195312 9.875 -13.117188 10.15625 -13.046875 C 10.351562 -12.972656 10.535156 -12.921875 10.703125 -12.890625 C 10.867188 -12.859375 11.035156 -12.84375 11.203125 -12.84375 L 11.203125 -10.625 L 11 -10.625 C 10.914062 -11.03125 10.765625 -11.367188 10.546875 -11.640625 C 10.335938 -11.921875 10.085938 -12.132812 9.796875 -12.28125 C 9.515625 -12.425781 9.210938 -12.53125 8.890625 -12.59375 C 8.566406 -12.65625 8.25 -12.6875 7.9375 -12.6875 Z M 7.9375 -12.6875 "/></g></g></g><g fill="#000000" fill-opacity="1"><g transform="translate(20.2129, 43.124997)"><g><path d="M 5.78125 -6.9375 C 5.625 -7.207031 5.457031 -7.375 5.28125 -7.4375 C 5.101562 -7.507812 4.90625 -7.546875 4.6875 -7.546875 C 4.53125 -7.546875 4.367188 -7.507812 4.203125 -7.4375 C 4.035156 -7.375 3.875 -7.285156 3.71875 -7.171875 C 3.5625 -7.066406 3.40625 -6.953125 3.25 -6.828125 C 3.09375 -6.703125 2.960938 -6.585938 2.859375 -6.484375 L 2.859375 -1.28125 C 2.859375 -1.175781 2.867188 -1.0625 2.890625 -0.9375 C 2.921875 -0.820312 2.96875 -0.707031 3.03125 -0.59375 C 3.09375 -0.476562 3.160156 -0.382812 3.234375 -0.3125 C 3.304688 -0.238281 3.394531 -0.203125 3.5 -0.203125 L 3.5 0 L 0.90625 0 L 0.90625 -0.203125 C 1 -0.203125 1.082031 -0.238281 1.15625 -0.3125 C 1.238281 -0.382812 1.304688 -0.476562 1.359375 -0.59375 C 1.421875 -0.707031 1.46875 -0.820312 1.5 -0.9375 C 1.53125 -1.0625 1.546875 -1.175781 1.546875 -1.28125 L 1.546875 -6.859375 C 1.546875 -7.046875 1.484375 -7.234375 1.359375 -7.421875 C 1.242188 -7.609375 1.070312 -7.726562 0.84375 -7.78125 L 0.84375 -7.9375 L 2.859375 -8.546875 L 2.859375 -7.34375 C 2.984375 -7.488281 3.109375 -7.628906 3.234375 -7.765625 C 3.367188 -7.910156 3.519531 -8.035156 3.6875 -8.140625 C 3.851562 -8.253906 4.035156 -8.347656 4.234375 -8.421875 C 4.441406 -8.503906 4.675781 -8.546875 4.9375 -8.546875 C 5.125 -8.546875 5.363281 -8.503906 5.65625 -8.421875 C 5.945312 -8.335938 6.1875 -8.25 6.375 -8.15625 Z M 5.78125 -6.9375 "/></g></g></g><g fill="#000000" fill-opacity="1"><g transform="translate(26.950242, 43.124997)"><g><path d="M 4.09375 2.859375 C 3.90625 3.421875 3.664062 3.800781 3.375 4 C 3.09375 4.195312 2.800781 4.296875 2.5 4.296875 C 2.300781 4.296875 2.125 4.269531 1.96875 4.21875 C 1.8125 4.164062 1.675781 4.101562 1.5625 4.03125 C 1.457031 3.957031 1.367188 3.882812 1.296875 3.8125 C 1.234375 3.75 1.195312 3.695312 1.1875 3.65625 L 1.84375 2.046875 C 1.90625 2.285156 1.972656 2.460938 2.046875 2.578125 C 2.109375 2.710938 2.195312 2.832031 2.3125 2.9375 C 2.4375 3.039062 2.585938 3.09375 2.765625 3.09375 C 3.078125 3.09375 3.328125 2.863281 3.515625 2.40625 L 4.5 -0.0625 L 1.28125 -7.34375 C 1.21875 -7.5 1.109375 -7.679688 0.953125 -7.890625 C 0.796875 -8.097656 0.582031 -8.203125 0.3125 -8.203125 L 0.3125 -8.40625 L 2.953125 -8.40625 L 2.953125 -8.203125 C 2.898438 -8.203125 2.832031 -8.15625 2.75 -8.0625 C 2.675781 -7.96875 2.640625 -7.847656 2.640625 -7.703125 C 2.640625 -7.578125 2.664062 -7.46875 2.71875 -7.375 L 5.1875 -1.71875 L 7.546875 -7.5 C 7.578125 -7.59375 7.59375 -7.679688 7.59375 -7.765625 C 7.59375 -7.890625 7.550781 -7.992188 7.46875 -8.078125 C 7.382812 -8.160156 7.296875 -8.203125 7.203125 -8.203125 L 7.203125 -8.40625 L 9.140625 -8.40625 L 9.140625 -8.203125 C 8.921875 -8.203125 8.734375 -8.109375 8.578125 -7.921875 C 8.429688 -7.742188 8.3125 -7.539062 8.21875 -7.3125 Z M 4.09375 2.859375 "/></g></g></g><g fill="#000000" fill-opacity="1"><g transform="translate(36.426499, 43.124997)"><g><path d="M 5.15625 -8.546875 C 5.875 -8.546875 6.492188 -8.421875 7.015625 -8.171875 C 7.546875 -7.921875 7.988281 -7.59375 8.34375 -7.1875 C 8.695312 -6.789062 8.960938 -6.332031 9.140625 -5.8125 C 9.316406 -5.300781 9.40625 -4.769531 9.40625 -4.21875 C 9.40625 -3.6875 9.320312 -3.160156 9.15625 -2.640625 C 8.988281 -2.117188 8.734375 -1.648438 8.390625 -1.234375 C 8.046875 -0.828125 7.617188 -0.492188 7.109375 -0.234375 C 6.609375 0.015625 6.007812 0.140625 5.3125 0.140625 C 4.90625 0.140625 4.484375 0.03125 4.046875 -0.1875 C 3.617188 -0.40625 3.226562 -0.679688 2.875 -1.015625 L 2.875 2.90625 C 2.875 3.007812 2.882812 3.125 2.90625 3.25 C 2.9375 3.375 2.984375 3.488281 3.046875 3.59375 C 3.109375 3.707031 3.175781 3.800781 3.25 3.875 C 3.320312 3.957031 3.410156 4 3.515625 4 L 3.515625 4.203125 L 0.921875 4.203125 L 0.921875 4 C 1.015625 4 1.097656 3.957031 1.171875 3.875 C 1.253906 3.800781 1.328125 3.707031 1.390625 3.59375 C 1.453125 3.488281 1.492188 3.375 1.515625 3.25 C 1.546875 3.125 1.5625 3.007812 1.5625 2.90625 L 1.5625 -7.21875 C 1.5625 -7.34375 1.554688 -7.457031 1.546875 -7.5625 C 1.546875 -7.675781 1.523438 -7.773438 1.484375 -7.859375 C 1.441406 -7.953125 1.375 -8.03125 1.28125 -8.09375 C 1.195312 -8.15625 1.078125 -8.191406 0.921875 -8.203125 L 0.921875 -8.40625 L 2.875 -8.40625 L 2.875 -7.515625 C 3.144531 -7.835938 3.46875 -8.085938 3.84375 -8.265625 C 4.226562 -8.453125 4.664062 -8.546875 5.15625 -8.546875 Z M 5.34375 -0.546875 C 5.8125 -0.554688 6.21875 -0.660156 6.5625 -0.859375 C 6.90625 -1.054688 7.191406 -1.316406 7.421875 -1.640625 C 7.648438 -1.960938 7.816406 -2.316406 7.921875 -2.703125 C 8.023438 -3.097656 8.078125 -3.507812 8.078125 -3.9375 C 8.078125 -4.414062 8.007812 -4.890625 7.875 -5.359375 C 7.75 -5.828125 7.554688 -6.242188 7.296875 -6.609375 C 7.046875 -6.972656 6.734375 -7.269531 6.359375 -7.5 C 5.992188 -7.738281 5.582031 -7.859375 5.125 -7.859375 C 4.84375 -7.859375 4.5625 -7.804688 4.28125 -7.703125 C 4.007812 -7.597656 3.769531 -7.441406 3.5625 -7.234375 C 3.363281 -7.035156 3.195312 -6.800781 3.0625 -6.53125 C 2.9375 -6.257812 2.875 -5.957031 2.875 -5.625 L 2.875 -3 C 2.875 -2.632812 2.945312 -2.300781 3.09375 -2 C 3.238281 -1.707031 3.425781 -1.453125 3.65625 -1.234375 C 3.894531 -1.015625 4.160156 -0.84375 4.453125 -0.71875 C 4.753906 -0.601562 5.050781 -0.546875 5.34375 -0.546875 Z M 5.34375 -0.546875 "/></g></g></g><g fill="#000000" fill-opacity="1"><g transform="translate(46.722438, 43.124997)"><g><path d="M 2.859375 -7.71875 L 2.859375 -2.90625 C 2.859375 -2.550781 2.863281 -2.234375 2.875 -1.953125 C 2.894531 -1.679688 2.929688 -1.453125 2.984375 -1.265625 C 3.035156 -1.078125 3.113281 -0.929688 3.21875 -0.828125 C 3.320312 -0.734375 3.46875 -0.6875 3.65625 -0.6875 C 3.9375 -0.6875 4.195312 -0.816406 4.4375 -1.078125 C 4.6875 -1.347656 4.847656 -1.671875 4.921875 -2.046875 L 5.09375 -2.046875 L 5.09375 -0.578125 C 4.976562 -0.578125 4.878906 -0.535156 4.796875 -0.453125 C 4.691406 -0.359375 4.539062 -0.257812 4.34375 -0.15625 C 4.15625 -0.0507812 3.867188 0 3.484375 0 C 3.003906 0 2.628906 -0.09375 2.359375 -0.28125 C 2.085938 -0.46875 1.890625 -0.710938 1.765625 -1.015625 C 1.648438 -1.328125 1.582031 -1.664062 1.5625 -2.03125 C 1.550781 -2.40625 1.546875 -2.789062 1.546875 -3.1875 L 1.546875 -7.71875 L 0.421875 -7.71875 L 0.421875 -8.40625 L 1.546875 -8.40625 L 1.546875 -10.1875 C 1.546875 -10.40625 1.515625 -10.609375 1.453125 -10.796875 C 1.390625 -10.992188 1.191406 -11.101562 0.859375 -11.125 L 0.859375 -11.3125 L 2.859375 -11.953125 L 2.859375 -8.40625 L 5.09375 -8.40625 L 5.09375 -7.71875 Z M 2.859375 -7.71875 "/></g></g></g><g fill="#000000" fill-opacity="1"><g transform="translate(52.420188, 43.124997)"><g><path d="M 5.09375 0.140625 C 4.425781 0.140625 3.828125 0.03125 3.296875 -0.1875 C 2.765625 -0.40625 2.304688 -0.703125 1.921875 -1.078125 C 1.546875 -1.460938 1.253906 -1.914062 1.046875 -2.4375 C 0.835938 -2.957031 0.734375 -3.523438 0.734375 -4.140625 C 0.734375 -4.796875 0.847656 -5.390625 1.078125 -5.921875 C 1.304688 -6.460938 1.617188 -6.925781 2.015625 -7.3125 C 2.421875 -7.707031 2.894531 -8.007812 3.4375 -8.21875 C 3.988281 -8.4375 4.582031 -8.546875 5.21875 -8.546875 C 5.863281 -8.546875 6.453125 -8.441406 6.984375 -8.234375 C 7.515625 -8.023438 7.972656 -7.734375 8.359375 -7.359375 C 8.742188 -6.984375 9.039062 -6.539062 9.25 -6.03125 C 9.46875 -5.519531 9.578125 -4.957031 9.578125 -4.34375 C 9.578125 -3.769531 9.476562 -3.210938 9.28125 -2.671875 C 9.09375 -2.128906 8.804688 -1.648438 8.421875 -1.234375 C 8.046875 -0.828125 7.582031 -0.492188 7.03125 -0.234375 C 6.476562 0.015625 5.832031 0.140625 5.09375 0.140625 Z M 4.984375 -7.875 C 4.503906 -7.851562 4.078125 -7.738281 3.703125 -7.53125 C 3.335938 -7.320312 3.03125 -7.050781 2.78125 -6.71875 C 2.539062 -6.394531 2.359375 -6.023438 2.234375 -5.609375 C 2.109375 -5.203125 2.046875 -4.785156 2.046875 -4.359375 C 2.046875 -3.867188 2.117188 -3.390625 2.265625 -2.921875 C 2.421875 -2.460938 2.640625 -2.050781 2.921875 -1.6875 C 3.210938 -1.332031 3.554688 -1.046875 3.953125 -0.828125 C 4.359375 -0.617188 4.804688 -0.515625 5.296875 -0.515625 C 5.796875 -0.515625 6.234375 -0.617188 6.609375 -0.828125 C 6.992188 -1.046875 7.3125 -1.328125 7.5625 -1.671875 C 7.8125 -2.015625 8 -2.394531 8.125 -2.8125 C 8.25 -3.238281 8.3125 -3.664062 8.3125 -4.09375 C 8.3125 -4.539062 8.242188 -4.984375 8.109375 -5.421875 C 7.984375 -5.867188 7.78125 -6.273438 7.5 -6.640625 C 7.21875 -7.015625 6.863281 -7.3125 6.4375 -7.53125 C 6.019531 -7.757812 5.535156 -7.875 4.984375 -7.875 Z M 4.984375 -7.875 "/></g></g></g><g fill="#000000" fill-opacity="1"><g transform="translate(62.876058, 43.124997)"><g><path d="M 8.28125 -0.71875 C 8.175781 -0.71875 8.078125 -0.691406 7.984375 -0.640625 C 7.890625 -0.597656 7.78125 -0.546875 7.65625 -0.484375 C 7.425781 -0.347656 7.140625 -0.207031 6.796875 -0.0625 C 6.453125 0.0703125 6 0.140625 5.4375 0.140625 C 4.757812 0.140625 4.128906 0.03125 3.546875 -0.1875 C 2.972656 -0.40625 2.472656 -0.710938 2.046875 -1.109375 C 1.628906 -1.503906 1.300781 -1.960938 1.0625 -2.484375 C 0.832031 -3.015625 0.71875 -3.585938 0.71875 -4.203125 C 0.71875 -4.773438 0.820312 -5.320312 1.03125 -5.84375 C 1.238281 -6.363281 1.535156 -6.820312 1.921875 -7.21875 C 2.304688 -7.613281 2.78125 -7.929688 3.34375 -8.171875 C 3.914062 -8.421875 4.5625 -8.546875 5.28125 -8.546875 C 5.769531 -8.546875 6.164062 -8.488281 6.46875 -8.375 C 6.78125 -8.257812 7.046875 -8.148438 7.265625 -8.046875 C 7.378906 -7.972656 7.492188 -7.914062 7.609375 -7.875 C 7.722656 -7.832031 7.835938 -7.8125 7.953125 -7.8125 L 7.953125 -6.296875 L 7.765625 -6.296875 C 7.691406 -6.554688 7.566406 -6.78125 7.390625 -6.96875 C 7.222656 -7.164062 7.023438 -7.328125 6.796875 -7.453125 C 6.566406 -7.585938 6.316406 -7.6875 6.046875 -7.75 C 5.785156 -7.820312 5.53125 -7.859375 5.28125 -7.859375 C 4.726562 -7.859375 4.242188 -7.757812 3.828125 -7.5625 C 3.421875 -7.375 3.082031 -7.125 2.8125 -6.8125 C 2.550781 -6.5 2.351562 -6.140625 2.21875 -5.734375 C 2.082031 -5.335938 2.015625 -4.925781 2.015625 -4.5 C 2.015625 -4.007812 2.09375 -3.523438 2.25 -3.046875 C 2.414062 -2.578125 2.648438 -2.15625 2.953125 -1.78125 C 3.253906 -1.40625 3.617188 -1.101562 4.046875 -0.875 C 4.472656 -0.65625 4.953125 -0.546875 5.484375 -0.546875 C 5.859375 -0.546875 6.203125 -0.597656 6.515625 -0.703125 C 6.828125 -0.804688 7.09375 -0.941406 7.3125 -1.109375 C 7.53125 -1.285156 7.707031 -1.476562 7.84375 -1.6875 C 7.976562 -1.894531 8.054688 -2.09375 8.078125 -2.28125 L 8.28125 -2.28125 Z M 8.28125 -0.71875 "/></g></g></g><g fill="#000000" fill-opacity="1"><g transform="translate(71.592622, 43.124997)"><g><path d="M 8.8125 -1.296875 C 8.8125 -1.203125 8.828125 -1.09375 8.859375 -0.96875 C 8.890625 -0.84375 8.925781 -0.722656 8.96875 -0.609375 C 9.019531 -0.492188 9.082031 -0.394531 9.15625 -0.3125 C 9.238281 -0.238281 9.332031 -0.203125 9.4375 -0.203125 L 9.4375 0 L 7.5 0 L 7.5 -1.09375 C 7.300781 -0.800781 7.007812 -0.515625 6.625 -0.234375 C 6.238281 0.046875 5.738281 0.1875 5.125 0.1875 C 4.34375 0.1875 3.722656 0.0507812 3.265625 -0.21875 C 2.816406 -0.488281 2.472656 -0.828125 2.234375 -1.234375 C 1.992188 -1.648438 1.84375 -2.097656 1.78125 -2.578125 C 1.71875 -3.066406 1.6875 -3.523438 1.6875 -3.953125 L 1.6875 -6.8125 C 1.6875 -6.9375 1.679688 -7.054688 1.671875 -7.171875 C 1.660156 -7.285156 1.628906 -7.390625 1.578125 -7.484375 C 1.535156 -7.578125 1.46875 -7.648438 1.375 -7.703125 C 1.28125 -7.765625 1.148438 -7.796875 0.984375 -7.796875 L 0.984375 -7.984375 L 3 -8.625 L 3 -3.515625 C 3 -2.503906 3.21875 -1.757812 3.65625 -1.28125 C 4.09375 -0.800781 4.632812 -0.5625 5.28125 -0.5625 C 5.625 -0.5625 5.929688 -0.632812 6.203125 -0.78125 C 6.484375 -0.9375 6.71875 -1.117188 6.90625 -1.328125 C 7.101562 -1.546875 7.25 -1.769531 7.34375 -2 C 7.445312 -2.226562 7.5 -2.414062 7.5 -2.5625 L 7.5 -6.8125 C 7.5 -6.9375 7.492188 -7.054688 7.484375 -7.171875 C 7.484375 -7.285156 7.457031 -7.390625 7.40625 -7.484375 C 7.363281 -7.578125 7.296875 -7.648438 7.203125 -7.703125 C 7.109375 -7.765625 6.972656 -7.796875 6.796875 -7.796875 L 6.796875 -7.984375 L 8.8125 -8.625 Z M 8.8125 -1.296875 "/></g></g></g><g fill="#000000" fill-opacity="1"><g transform="translate(82.068485, 43.124997)"><g><path d="M 5.78125 -6.9375 C 5.625 -7.207031 5.457031 -7.375 5.28125 -7.4375 C 5.101562 -7.507812 4.90625 -7.546875 4.6875 -7.546875 C 4.53125 -7.546875 4.367188 -7.507812 4.203125 -7.4375 C 4.035156 -7.375 3.875 -7.285156 3.71875 -7.171875 C 3.5625 -7.066406 3.40625 -6.953125 3.25 -6.828125 C 3.09375 -6.703125 2.960938 -6.585938 2.859375 -6.484375 L 2.859375 -1.28125 C 2.859375 -1.175781 2.867188 -1.0625 2.890625 -0.9375 C 2.921875 -0.820312 2.96875 -0.707031 3.03125 -0.59375 C 3.09375 -0.476562 3.160156 -0.382812 3.234375 -0.3125 C 3.304688 -0.238281 3.394531 -0.203125 3.5 -0.203125 L 3.5 0 L 0.90625 0 L 0.90625 -0.203125 C 1 -0.203125 1.082031 -0.238281 1.15625 -0.3125 C 1.238281 -0.382812 1.304688 -0.476562 1.359375 -0.59375 C 1.421875 -0.707031 1.46875 -0.820312 1.5 -0.9375 C 1.53125 -1.0625 1.546875 -1.175781 1.546875 -1.28125 L 1.546875 -6.859375 C 1.546875 -7.046875 1.484375 -7.234375 1.359375 -7.421875 C 1.242188 -7.609375 1.070312 -7.726562 0.84375 -7.78125 L 0.84375 -7.9375 L 2.859375 -8.546875 L 2.859375 -7.34375 C 2.984375 -7.488281 3.109375 -7.628906 3.234375 -7.765625 C 3.367188 -7.910156 3.519531 -8.035156 3.6875 -8.140625 C 3.851562 -8.253906 4.035156 -8.347656 4.234375 -8.421875 C 4.441406 -8.503906 4.675781 -8.546875 4.9375 -8.546875 C 5.125 -8.546875 5.363281 -8.503906 5.65625 -8.421875 C 5.945312 -8.335938 6.1875 -8.25 6.375 -8.15625 Z M 5.78125 -6.9375 "/></g></g></g><g fill="#000000" fill-opacity="1"><g transform="translate(88.805828, 43.124997)"><g><path d="M 5.78125 -6.9375 C 5.625 -7.207031 5.457031 -7.375 5.28125 -7.4375 C 5.101562 -7.507812 4.90625 -7.546875 4.6875 -7.546875 C 4.53125 -7.546875 4.367188 -7.507812 4.203125 -7.4375 C 4.035156 -7.375 3.875 -7.285156 3.71875 -7.171875 C 3.5625 -7.066406 3.40625 -6.953125 3.25 -6.828125 C 3.09375 -6.703125 2.960938 -6.585938 2.859375 -6.484375 L 2.859375 -1.28125 C 2.859375 -1.175781 2.867188 -1.0625 2.890625 -0.9375 C 2.921875 -0.820312 2.96875 -0.707031 3.03125 -0.59375 C 3.09375 -0.476562 3.160156 -0.382812 3.234375 -0.3125 C 3.304688 -0.238281 3.394531 -0.203125 3.5 -0.203125 L 3.5 0 L 0.90625 0 L 0.90625 -0.203125 C 1 -0.203125 1.082031 -0.238281 1.15625 -0.3125 C 1.238281 -0.382812 1.304688 -0.476562 1.359375 -0.59375 C 1.421875 -0.707031 1.46875 -0.820312 1.5 -0.9375 C 1.53125 -1.0625 1.546875 -1.175781 1.546875 -1.28125 L 1.546875 -6.859375 C 1.546875 -7.046875 1.484375 -7.234375 1.359375 -7.421875 C 1.242188 -7.609375 1.070312 -7.726562 0.84375 -7.78125 L 0.84375 -7.9375 L 2.859375 -8.546875 L 2.859375 -7.34375 C 2.984375 -7.488281 3.109375 -7.628906 3.234375 -7.765625 C 3.367188 -7.910156 3.519531 -8.035156 3.6875 -8.140625 C 3.851562 -8.253906 4.035156 -8.347656 4.234375 -8.421875 C 4.441406 -8.503906 4.675781 -8.546875 4.9375 -8.546875 C 5.125 -8.546875 5.363281 -8.503906 5.65625 -8.421875 C 5.945312 -8.335938 6.1875 -8.25 6.375 -8.15625 Z M 5.78125 -6.9375 "/></g></g></g><g fill="#000000" fill-opacity="1"><g transform="translate(95.54317, 43.124997)"><g><path d="M 2 -4.046875 C 2.050781 -3.578125 2.160156 -3.128906 2.328125 -2.703125 C 2.503906 -2.285156 2.734375 -1.914062 3.015625 -1.59375 C 3.304688 -1.28125 3.660156 -1.023438 4.078125 -0.828125 C 4.492188 -0.640625 4.972656 -0.546875 5.515625 -0.546875 C 5.804688 -0.546875 6.113281 -0.585938 6.4375 -0.671875 C 6.769531 -0.753906 7.078125 -0.875 7.359375 -1.03125 C 7.640625 -1.195312 7.890625 -1.394531 8.109375 -1.625 C 8.328125 -1.863281 8.476562 -2.128906 8.5625 -2.421875 L 8.734375 -2.421875 L 8.734375 -0.921875 C 8.660156 -0.921875 8.570312 -0.894531 8.46875 -0.84375 C 8.363281 -0.789062 8.25 -0.722656 8.125 -0.640625 C 7.851562 -0.484375 7.488281 -0.3125 7.03125 -0.125 C 6.582031 0.0507812 5.984375 0.140625 5.234375 0.140625 C 4.640625 0.140625 4.070312 0.0546875 3.53125 -0.109375 C 2.988281 -0.285156 2.507812 -0.550781 2.09375 -0.90625 C 1.6875 -1.269531 1.359375 -1.734375 1.109375 -2.296875 C 0.859375 -2.859375 0.734375 -3.523438 0.734375 -4.296875 C 0.734375 -4.796875 0.816406 -5.296875 0.984375 -5.796875 C 1.148438 -6.304688 1.40625 -6.765625 1.75 -7.171875 C 2.09375 -7.578125 2.53125 -7.90625 3.0625 -8.15625 C 3.59375 -8.414062 4.234375 -8.546875 4.984375 -8.546875 C 5.648438 -8.546875 6.234375 -8.429688 6.734375 -8.203125 C 7.234375 -7.972656 7.644531 -7.65625 7.96875 -7.25 C 8.289062 -6.851562 8.53125 -6.378906 8.6875 -5.828125 C 8.851562 -5.285156 8.9375 -4.691406 8.9375 -4.046875 Z M 4.90625 -7.875 C 4.4375 -7.875 4.03125 -7.78125 3.6875 -7.59375 C 3.351562 -7.40625 3.0625 -7.164062 2.8125 -6.875 C 2.570312 -6.582031 2.382812 -6.25 2.25 -5.875 C 2.125 -5.5 2.039062 -5.128906 2 -4.765625 L 7.703125 -4.765625 C 7.691406 -5.148438 7.617188 -5.523438 7.484375 -5.890625 C 7.359375 -6.265625 7.179688 -6.597656 6.953125 -6.890625 C 6.734375 -7.191406 6.445312 -7.429688 6.09375 -7.609375 C 5.75 -7.785156 5.351562 -7.875 4.90625 -7.875 Z M 4.90625 -7.875 "/></g></g></g><g fill="#000000" fill-opacity="1"><g transform="translate(105.239348, 43.124997)"><g><path d="M 8.9375 -1.296875 C 8.9375 -1.191406 8.945312 -1.078125 8.96875 -0.953125 C 9 -0.828125 9.046875 -0.707031 9.109375 -0.59375 C 9.171875 -0.488281 9.238281 -0.394531 9.3125 -0.3125 C 9.382812 -0.238281 9.472656 -0.203125 9.578125 -0.203125 L 9.578125 0 L 7 0 L 7 -0.203125 C 7.09375 -0.203125 7.175781 -0.238281 7.25 -0.3125 C 7.332031 -0.394531 7.40625 -0.488281 7.46875 -0.59375 C 7.53125 -0.707031 7.570312 -0.828125 7.59375 -0.953125 C 7.625 -1.078125 7.640625 -1.191406 7.640625 -1.296875 L 7.640625 -5.015625 C 7.640625 -5.492188 7.570312 -5.910156 7.4375 -6.265625 C 7.300781 -6.628906 7.117188 -6.929688 6.890625 -7.171875 C 6.671875 -7.421875 6.414062 -7.597656 6.125 -7.703125 C 5.84375 -7.816406 5.554688 -7.875 5.265625 -7.875 C 4.960938 -7.875 4.664062 -7.8125 4.375 -7.6875 C 4.09375 -7.570312 3.84375 -7.414062 3.625 -7.21875 C 3.40625 -7.03125 3.222656 -6.804688 3.078125 -6.546875 C 2.941406 -6.285156 2.875 -6.015625 2.875 -5.734375 L 2.875 -1.296875 C 2.875 -1.191406 2.882812 -1.078125 2.90625 -0.953125 C 2.9375 -0.828125 2.984375 -0.707031 3.046875 -0.59375 C 3.109375 -0.488281 3.175781 -0.394531 3.25 -0.3125 C 3.320312 -0.238281 3.410156 -0.203125 3.515625 -0.203125 L 3.515625 0 L 0.921875 0 L 0.921875 -0.203125 C 1.015625 -0.203125 1.097656 -0.238281 1.171875 -0.3125 C 1.253906 -0.394531 1.328125 -0.488281 1.390625 -0.59375 C 1.453125 -0.707031 1.492188 -0.828125 1.515625 -0.953125 C 1.546875 -1.078125 1.5625 -1.191406 1.5625 -1.296875 L 1.5625 -6.8125 C 1.5625 -7.039062 1.523438 -7.257812 1.453125 -7.46875 C 1.390625 -7.675781 1.195312 -7.785156 0.875 -7.796875 L 0.875 -7.984375 L 2.875 -8.625 L 2.875 -7.515625 C 2.96875 -7.628906 3.085938 -7.75 3.234375 -7.875 C 3.378906 -8 3.554688 -8.117188 3.765625 -8.234375 C 3.972656 -8.347656 4.210938 -8.441406 4.484375 -8.515625 C 4.765625 -8.585938 5.085938 -8.625 5.453125 -8.625 C 6.085938 -8.625 6.625 -8.515625 7.0625 -8.296875 C 7.5 -8.085938 7.859375 -7.8125 8.140625 -7.46875 C 8.421875 -7.125 8.625 -6.75 8.75 -6.34375 C 8.875 -5.9375 8.9375 -5.539062 8.9375 -5.15625 Z M 8.9375 -1.296875 "/></g></g></g><g fill="#000000" fill-opacity="1"><g transform="translate(115.875154, 43.124997)"><g><path d="M 8.28125 -0.71875 C 8.175781 -0.71875 8.078125 -0.691406 7.984375 -0.640625 C 7.890625 -0.597656 7.78125 -0.546875 7.65625 -0.484375 C 7.425781 -0.347656 7.140625 -0.207031 6.796875 -0.0625 C 6.453125 0.0703125 6 0.140625 5.4375 0.140625 C 4.757812 0.140625 4.128906 0.03125 3.546875 -0.1875 C 2.972656 -0.40625 2.472656 -0.710938 2.046875 -1.109375 C 1.628906 -1.503906 1.300781 -1.960938 1.0625 -2.484375 C 0.832031 -3.015625 0.71875 -3.585938 0.71875 -4.203125 C 0.71875 -4.773438 0.820312 -5.320312 1.03125 -5.84375 C 1.238281 -6.363281 1.535156 -6.820312 1.921875 -7.21875 C 2.304688 -7.613281 2.78125 -7.929688 3.34375 -8.171875 C 3.914062 -8.421875 4.5625 -8.546875 5.28125 -8.546875 C 5.769531 -8.546875 6.164062 -8.488281 6.46875 -8.375 C 6.78125 -8.257812 7.046875 -8.148438 7.265625 -8.046875 C 7.378906 -7.972656 7.492188 -7.914062 7.609375 -7.875 C 7.722656 -7.832031 7.835938 -7.8125 7.953125 -7.8125 L 7.953125 -6.296875 L 7.765625 -6.296875 C 7.691406 -6.554688 7.566406 -6.78125 7.390625 -6.96875 C 7.222656 -7.164062 7.023438 -7.328125 6.796875 -7.453125 C 6.566406 -7.585938 6.316406 -7.6875 6.046875 -7.75 C 5.785156 -7.820312 5.53125 -7.859375 5.28125 -7.859375 C 4.726562 -7.859375 4.242188 -7.757812 3.828125 -7.5625 C 3.421875 -7.375 3.082031 -7.125 2.8125 -6.8125 C 2.550781 -6.5 2.351562 -6.140625 2.21875 -5.734375 C 2.082031 -5.335938 2.015625 -4.925781 2.015625 -4.5 C 2.015625 -4.007812 2.09375 -3.523438 2.25 -3.046875 C 2.414062 -2.578125 2.648438 -2.15625 2.953125 -1.78125 C 3.253906 -1.40625 3.617188 -1.101562 4.046875 -0.875 C 4.472656 -0.65625 4.953125 -0.546875 5.484375 -0.546875 C 5.859375 -0.546875 6.203125 -0.597656 6.515625 -0.703125 C 6.828125 -0.804688 7.09375 -0.941406 7.3125 -1.109375 C 7.53125 -1.285156 7.707031 -1.476562 7.84375 -1.6875 C 7.976562 -1.894531 8.054688 -2.09375 8.078125 -2.28125 L 8.28125 -2.28125 Z M 8.28125 -0.71875 "/></g></g></g><g fill="#000000" fill-opacity="1"><g transform="translate(124.591717, 43.124997)"><g><path d="M 4.09375 2.859375 C 3.90625 3.421875 3.664062 3.800781 3.375 4 C 3.09375 4.195312 2.800781 4.296875 2.5 4.296875 C 2.300781 4.296875 2.125 4.269531 1.96875 4.21875 C 1.8125 4.164062 1.675781 4.101562 1.5625 4.03125 C 1.457031 3.957031 1.367188 3.882812 1.296875 3.8125 C 1.234375 3.75 1.195312 3.695312 1.1875 3.65625 L 1.84375 2.046875 C 1.90625 2.285156 1.972656 2.460938 2.046875 2.578125 C 2.109375 2.710938 2.195312 2.832031 2.3125 2.9375 C 2.4375 3.039062 2.585938 3.09375 2.765625 3.09375 C 3.078125 3.09375 3.328125 2.863281 3.515625 2.40625 L 4.5 -0.0625 L 1.28125 -7.34375 C 1.21875 -7.5 1.109375 -7.679688 0.953125 -7.890625 C 0.796875 -8.097656 0.582031 -8.203125 0.3125 -8.203125 L 0.3125 -8.40625 L 2.953125 -8.40625 L 2.953125 -8.203125 C 2.898438 -8.203125 2.832031 -8.15625 2.75 -8.0625 C 2.675781 -7.96875 2.640625 -7.847656 2.640625 -7.703125 C 2.640625 -7.578125 2.664062 -7.46875 2.71875 -7.375 L 5.1875 -1.71875 L 7.546875 -7.5 C 7.578125 -7.59375 7.59375 -7.679688 7.59375 -7.765625 C 7.59375 -7.890625 7.550781 -7.992188 7.46875 -8.078125 C 7.382812 -8.160156 7.296875 -8.203125 7.203125 -8.203125 L 7.203125 -8.40625 L 9.140625 -8.40625 L 9.140625 -8.203125 C 8.921875 -8.203125 8.734375 -8.109375 8.578125 -7.921875 C 8.429688 -7.742188 8.3125 -7.539062 8.21875 -7.3125 Z M 4.09375 2.859375 "/></g></g></g><g fill="#000000" fill-opacity="1"><g transform="translate(134.067974, 43.124997)"><g><path d="M 7.65625 -9.953125 C 7.65625 -9.554688 7.601562 -9.222656 7.5 -8.953125 C 7.40625 -8.691406 7.269531 -8.457031 7.09375 -8.25 C 6.925781 -8.050781 6.726562 -7.878906 6.5 -7.734375 C 6.269531 -7.585938 6.03125 -7.445312 5.78125 -7.3125 C 5.457031 -7.132812 5.128906 -6.9375 4.796875 -6.71875 C 4.472656 -6.507812 4.179688 -6.21875 3.921875 -5.84375 C 3.671875 -5.46875 3.460938 -4.992188 3.296875 -4.421875 C 3.128906 -3.847656 3.046875 -3.25 3.046875 -2.625 L 2.859375 -2.625 L 2.5625 -4.859375 C 2.53125 -4.941406 2.515625 -5.035156 2.515625 -5.140625 C 2.515625 -5.242188 2.515625 -5.335938 2.515625 -5.421875 C 2.515625 -5.765625 2.570312 -6.066406 2.6875 -6.328125 C 2.8125 -6.585938 2.972656 -6.820312 3.171875 -7.03125 C 3.378906 -7.238281 3.601562 -7.425781 3.84375 -7.59375 C 4.09375 -7.757812 4.335938 -7.921875 4.578125 -8.078125 C 5.015625 -8.347656 5.410156 -8.628906 5.765625 -8.921875 C 6.117188 -9.222656 6.296875 -9.609375 6.296875 -10.078125 C 6.296875 -10.816406 6.0625 -11.421875 5.59375 -11.890625 C 5.132812 -12.359375 4.5 -12.59375 3.6875 -12.59375 C 2.738281 -12.59375 2.007812 -12.46875 1.5 -12.21875 C 0.988281 -11.96875 0.722656 -11.507812 0.703125 -10.84375 L 0.5 -10.84375 L 0.5 -12.9375 L 0.984375 -12.9375 C 1.046875 -12.9375 1.101562 -12.941406 1.15625 -12.953125 C 1.507812 -13.046875 1.921875 -13.125 2.390625 -13.1875 C 2.859375 -13.25 3.273438 -13.28125 3.640625 -13.28125 C 4.335938 -13.28125 4.9375 -13.1875 5.4375 -13 C 5.945312 -12.8125 6.363281 -12.5625 6.6875 -12.25 C 7.019531 -11.945312 7.265625 -11.59375 7.421875 -11.1875 C 7.578125 -10.789062 7.65625 -10.378906 7.65625 -9.953125 Z M 3.9375 -0.59375 C 3.9375 -0.332031 3.847656 -0.109375 3.671875 0.078125 C 3.492188 0.273438 3.269531 0.375 3 0.375 C 2.71875 0.375 2.484375 0.273438 2.296875 0.078125 C 2.109375 -0.109375 2.015625 -0.332031 2.015625 -0.59375 C 2.015625 -0.863281 2.109375 -1.09375 2.296875 -1.28125 C 2.484375 -1.46875 2.71875 -1.5625 3 -1.5625 C 3.269531 -1.5625 3.492188 -1.46875 3.671875 -1.28125 C 3.847656 -1.09375 3.9375 -0.863281 3.9375 -0.59375 Z M 3.9375 -0.59375 "/></g></g></g></svg>